<svg width="82" height="99" viewBox="0 0 82 99" fill="none" xmlns="http://www.w3.org/2000/svg">
<path d="M18.0192 88.9685L9.24894 78.9255L13.6844 58.0584L8.4676 56.9495C5.59837 56.3396 3.35928 54.7959 1.75035 52.3184C0.141408 49.8408 -0.358123 47.1675 0.251752 44.2982L8.56823 5.1723C7.09014 4.85812 5.95742 4.09482 5.17007 2.88241C4.38272 1.66999 4.14613 0.324735 4.46031 -1.15335C4.77449 -2.63144 5.53778 -3.76417 6.7502 -4.55152C7.96262 -5.33887 9.30787 -5.57546 10.786 -5.26128L26.4363 -1.93469L28.0996 -9.75987L25.4912 -10.3143C24.0131 -10.6285 22.8804 -11.3918 22.0931 -12.6042C21.3057 -13.8166 21.0691 -15.1619 21.3833 -16.64C21.6975 -18.118 22.4608 -19.2508 23.6732 -20.0381C24.8856 -20.8255 26.2309 -21.0621 27.709 -20.7479L43.3593 -17.4213C44.8374 -17.1071 45.9701 -16.3438 46.7575 -15.1314C47.5448 -13.919 47.7814 -12.5737 47.4673 -11.0956C47.1531 -9.61755 46.3898 -8.48483 45.1774 -7.69747C43.9649 -6.91012 42.6197 -6.67353 41.1416 -6.98771L38.5332 -7.54214L36.8699 0.283039L52.5203 3.60963C53.9984 3.92381 55.1311 4.68711 55.9184 5.89953C56.7058 7.11194 56.9424 8.4572 56.6282 9.93528C56.314 11.4134 55.5507 12.5461 54.3383 13.3334C53.1259 14.1208 51.7806 14.3574 50.3025 14.0432L41.9861 53.1691C41.3762 56.0384 39.8325 58.2775 37.3549 59.8864C34.8774 61.4953 32.204 61.9949 29.3348 61.385L24.118 60.2761L18.0192 88.9685ZM10.6853 46.5159L31.5525 50.9514L33.2158 43.1262L24.0864 41.1857C23.043 40.9639 22.2133 40.3786 21.5971 39.4298C20.9809 38.4809 20.7837 37.4848 21.0055 36.4415C21.2272 35.3981 21.8125 34.5683 22.7614 33.9521C23.7102 33.336 24.7063 33.1387 25.7497 33.3605L34.8791 35.301L36.5424 27.4758L27.413 25.5353C26.3696 25.3136 25.5399 24.7283 24.9237 23.7794C24.3075 22.8306 24.1103 21.8345 24.3321 20.7911C24.5538 19.7477 25.1391 18.918 26.088 18.3018C27.0368 17.6856 28.0329 17.4884 29.0763 17.7102L38.2057 19.6507L39.869 11.8255L19.0018 7.39003L10.6853 46.5159ZM55.0912 94.1221C52.2219 93.5122 49.9829 91.9685 48.3739 89.491C46.765 87.0134 46.2655 84.34 46.8753 81.4708L54.0829 47.5617C54.6189 45.0402 55.4972 43.0459 56.7178 41.5787C57.9384 40.1116 59.1563 38.871 60.3714 37.857C61.5865 36.8431 62.6639 36.0497 63.6035 35.477C64.5431 34.9043 65.0869 34.2702 65.2347 33.5746L65.7891 30.9662C64.3111 30.652 63.1783 29.8887 62.391 28.6763C61.6036 27.4639 61.367 26.1186 61.6812 24.6406C61.9954 23.1625 62.7587 22.0297 63.9711 21.2424C65.1835 20.455 66.5288 20.2185 68.0069 20.5326L94.0908 26.0769C95.5689 26.3911 96.7016 27.1544 97.489 28.3668C98.2763 29.5793 98.5129 30.9245 98.1987 32.4026C97.8846 33.8807 97.1213 35.0134 95.9089 35.8008C94.6964 36.5881 93.3512 36.8247 91.8731 36.5105L91.3187 39.1189C91.1708 39.8145 91.4392 40.6894 92.1239 41.7437C92.8085 42.798 93.5432 44.0446 94.3278 45.4836C95.0255 46.9042 95.5683 48.519 95.9562 50.3281C96.3441 52.1371 96.2978 54.172 95.8173 56.4326L88.6096 90.3417C87.9998 93.211 86.4561 95.45 83.9785 97.059C81.501 98.6679 78.8276 99.1674 75.9583 98.5576L55.0912 94.1221ZM63.9621 52.3878L84.8292 56.8233L85.3837 54.2149C85.6609 52.9107 85.5099 51.6972 84.9307 50.5744C84.3514 49.4517 83.7037 48.2235 82.9876 46.8899C82.2714 45.5564 81.6265 44.1016 81.0527 42.5256C80.4789 40.9497 80.4231 39.0749 80.8851 36.9012L81.4395 34.2928L76.2227 33.1839L75.6683 35.7923C75.2248 37.879 74.4421 39.5302 73.3204 40.7458C72.1988 41.9613 71.0396 43.0326 69.8429 43.9596C68.6463 44.8867 67.5287 45.7623 66.4901 46.5866C65.4516 47.4109 64.7937 48.4752 64.5165 49.7794L63.9621 52.3878ZM60.6355 68.0382L81.5027 72.4736L83.1659 64.6484L62.2988 60.213L60.6355 68.0382ZM57.3089 83.6885L78.1761 88.124L79.8394 80.2988L58.9722 75.8633L57.3089 83.6885ZM60.6355 68.0382L81.5027 72.4736L60.6355 68.0382Z" fill="#2B2F32"/>
</svg>
